Coordinates
version=1
nRows=18
nColumns=34
inDegrees=no

Units are S.I. units (second, meters, Newtons, ...)
If the header above contains a line with 'inDegrees', this indicates whether rotational values are in degrees (yes) or radians (no).

endheader
time	pelvis_tilt	pelvis_list	pelvis_rotation	pelvis_tx	pelvis_ty	pelvis_tz	hip_flexion_r	hip_adduction_r	hip_rotation_r	knee_angle_r	ankle_angle_r	subtalar_angle_r	mtp_angle_r	hip_flexion_l	hip_adduction_l	hip_rotation_l	knee_angle_l	ankle_angle_l	subtalar_angle_l	mtp_angle_l	lumbar_extension	lumbar_bending	lumbar_rotation	arm_flex_r	arm_add_r	arm_rot_r	elbow_flex_r	pro_sup_r	arm_flex_l	arm_add_l	arm_rot_l	elbow_flex_l	pro_sup_l
0.92	0.185732	0.0248848	-0.0057529	1.00884	1.06121	-0.280426	0.338189	-0.147849	-0.152251	1.0451	-0.0870091	-0.194901	-0.129736	-0.209041	0.0410288	-0.137324	0.186355	0.273082	0.334517	-0.129736	-0.471063	-0.0156075	-0.0745824	0.00449321	-0.188032	-0.168484	0.678265	1.75991	0.216193	-0.254829	0.126318	0.959436	1.64397
0.93	0.193068	0.0136116	-0.00229592	1.02097	1.0623	-0.280226	0.33247	-0.128054	-0.163632	0.987473	-0.0716363	-0.165724	-0.129736	-0.237024	0.0275334	-0.144014	0.173765	0.276588	0.346784	-0.129736	-0.480584	-0.00101137	-0.0771745	0.00135145	-0.191071	-0.168796	0.678404	1.74276	0.226921	-0.258814	0.131278	0.979107	1.62419
0.94	0.18936	0.0201554	-0.00503587	1.03297	1.06131	-0.279942	0.344296	-0.128606	-0.163834	0.937634	-0.0547596	-0.142621	-0.129736	-0.253816	0.0363386	-0.143585	0.158926	0.275667	0.34196	-0.129736	-0.477494	-0.0067761	-0.0816251	-0.00358567	-0.191865	-0.171264	0.677193	1.73873	0.235731	-0.265218	0.136565	0.997718	1.62234
0.95	0.197121	0.00865122	-0.00186311	1.04525	1.062	-0.27956	0.331847	-0.107891	-0.17402	0.868821	-0.0476117	-0.125774	-0.129736	-0.282154	0.0223265	-0.153314	0.1469	0.279761	0.357144	-0.129736	-0.487479	0.00790109	-0.0832076	-0.00632349	-0.194648	-0.172951	0.675342	1.73568	0.245395	-0.269479	0.141168	1.01547	1.61726
0.96	0.191706	0.0182161	-0.00677925	1.05736	1.06029	-0.279069	0.341093	-0.110982	-0.171099	0.810972	-0.03663	-0.114654	-0.129736	-0.297242	0.0349686	-0.154429	0.132119	0.278763	0.352407	-0.129736	-0.482465	-0.00169401	-0.086516	-0.0110836	-0.195002	-0.175969	0.673517	1.73198	0.252955	-0.276389	0.147126	1.03489	1.6126
0.97	0.198173	0.00898436	-0.0051305	1.06981	1.06031	-0.278487	0.324702	-0.0923323	-0.177634	0.73306	-0.0363955	-0.111753	-0.129736	-0.324716	0.0239909	-0.165417	0.119497	0.28198	0.366237	-0.129736	-0.490933	0.0100428	-0.0871673	-0.0135256	-0.197263	-0.178273	0.670869	1.72864	0.261051	-0.280959	0.151646	1.05323	1.60742
0.98	0.190656	0.0207167	-0.0128618	1.08197	1.05786	-0.277586	0.331985	-0.0966516	-0.17071	0.667489	-0.0297136	-0.110655	-0.129736	-0.337513	0.0396497	-0.16873	0.105007	0.280932	0.361712	-0.129736	-0.483709	-0.0030633	-0.0883762	-0.017688	-0.196898	-0.181956	0.668162	1.72282	0.267227	-0.28815	0.157598	1.07425	1.59485
0.99	0.194894	0.015496	-0.0131727	1.09467	1.05704	-0.276874	0.313608	-0.0827707	-0.173542	0.582703	-0.0318999	-0.114763	-0.129736	-0.36298	0.0339516	-0.180382	0.0921904	0.283646	0.374639	-0.129736	-0.489428	0.00390564	-0.0886249	-0.0200354	-0.198468	-0.185529	0.664254	1.72286	0.273262	-0.292556	0.161001	1.09262	1.59173
1	0.184593	0.0229681	-0.026107	1.10636	1.05402	-0.274672	0.319105	-0.0786361	-0.158409	0.50646	-0.0326162	-0.121622	-0.129736	-0.370139	0.045178	-0.194563	0.0826722	0.286778	0.380687	-0.129736	-0.480622	-0.00814699	-0.0824805	-0.0220254	-0.197003	-0.190498	0.659327	1.72207	0.279436	-0.299399	0.165388	1.11107	1.59011
1.01	0.181871	0.0267298	-0.0318093	1.11895	1.0517	-0.273475	0.30815	-0.0744108	-0.153812	0.421136	-0.0306683	-0.119827	-0.129736	-0.387398	0.0511257	-0.204639	0.070776	0.288311	0.387484	-0.129736	-0.478643	-0.0125361	-0.0811929	-0.0244331	-0.19688	-0.196003	0.653831	1.72967	0.283698	-0.30408	0.167538	1.12769	1.59577
1.02	0.179787	0.0310713	-0.0365536	1.13181	1.04919	-0.272412	0.293544	-0.0719156	-0.150677	0.33307	-0.0262788	-0.110165	-0.129736	-0.405164	0.0574932	-0.213972	0.0596179	0.289784	0.394967	-0.129736	-0.476888	-0.016894	-0.0807236	-0.0270166	-0.196831	-0.201374	0.648818	1.73296	0.286898	-0.30799	0.168746	1.14354	1.60172
1.03	0.178169	0.0353188	-0.0406156	1.14487	1.04652	-0.271334	0.27616	-0.0699996	-0.147753	0.244523	-0.0201788	-0.0925218	-0.129736	-0.422609	0.0632787	-0.223639	0.05043	0.291972	0.404796	-0.129736	-0.475341	-0.0208303	-0.0803954	-0.0297249	-0.196782	-0.206102	0.644947	1.72606	0.289352	-0.311364	0.169759	1.16036	1.59586
1.04	0.176923	0.0397072	-0.0440081	1.15811	1.04367	-0.27022	0.257771	-0.0690064	-0.143982	0.160396	-0.0117493	-0.0667713	-0.129736	-0.439261	0.0685619	-0.23329	0.0438823	0.295087	0.416975	-0.129736	-0.473922	-0.0246288	-0.0802409	-0.032592	-0.196565	-0.211291	0.640993	1.72101	0.291193	-0.314173	0.170001	1.17575	1.59344
1.05	0.17591	0.0443461	-0.0468834	1.17146	1.04064	-0.269075	0.240921	-0.0692519	-0.137817	0.0872468	-9.821e-05	-0.0343257	-0.129736	-0.454523	0.0733677	-0.242717	0.0407412	0.299425	0.431668	-0.129736	-0.472591	-0.0284307	-0.0801083	-0.0355508	-0.196194	-0.217226	0.636627	1.72119	0.29263	-0.31647	0.169665	1.18959	1.59506
1.06	0.175053	0.0490033	-0.0493745	1.18481	1.03751	-0.26793	0.228207	-0.0707488	-0.127792	0.0317348	0.0153434	0.00197232	-0.129736	-0.468146	0.0775404	-0.250464	0.0410503	0.304379	0.446299	-0.129736	-0.471598	-0.0319619	-0.0797946	-0.038232	-0.195854	-0.223524	0.632006	1.72431	0.293969	-0.31822	0.169	1.20202	1.59903
1.07	0.174476	0.0527681	-0.0516689	1.19806	1.03439	-0.266804	0.221273	-0.0725481	-0.112991	0	0.0336006	0.0375585	-0.129736	-0.480046	0.0802429	-0.25623	0.0450543	0.309745	0.459852	-0.129736	-0.471434	-0.0342711	-0.0788269	-0.0401921	-0.195866	-0.229602	0.627375	1.7272	0.295391	-0.319226	0.168119	1.21302	1.60415
1.08	0.173743	0.0579598	-0.0521321	1.21102	1.03143	-0.266025	0.222898	-0.0776184	-0.0989754	0	0.05787	0.0790963	-0.129736	-0.493006	0.0847959	-0.24265	0.0450543	0.306171	0.442051	-0.129736	-0.472051	-0.0368286	-0.080245	-0.0404799	-0.196758	-0.227636	0.62905	1.66115	0.296712	-0.320547	0.169224	1.23412	1.53794
1.09	0.175096	0.0536552	-0.0557737	1.22418	1.02864	-0.264543	0.224591	-0.0709905	-0.0714009	0.00144737	0.0668135	0.0880707	-0.129736	-0.499911	0.077445	-0.262137	0.0638541	0.320481	0.481267	-0.129736	-0.475115	-0.0312058	-0.0737749	-0.0410199	-0.19772	-0.239875	0.617502	1.7348	0.297696	-0.318273	0.164708	1.2284	1.62971
